<?xml version="1.0" encoding="UTF-8" standalone="no"?>
<!-- Created with Inkscape (http://www.inkscape.org/) -->

<svg
   width="500"
   height="500"
   viewBox="0 0 132.29167 132.29167"
   version="1.1"
   id="svg1"
   xml:space="preserve"
   inkscape:version="1.4.1 (unknown)"
   sodipodi:docname="Kontainer.svg"
   xmlns:inkscape="http://www.inkscape.org/namespaces/inkscape"
   xmlns:sodipodi="http://sodipodi.sourceforge.net/DTD/sodipodi-0.dtd"
   xmlns="http://www.w3.org/2000/svg"
   xmlns:svg="http://www.w3.org/2000/svg"><sodipodi:namedview
     id="namedview1"
     pagecolor="#ffffff"
     bordercolor="#000000"
     borderopacity="0.25"
     inkscape:showpageshadow="2"
     inkscape:pageopacity="0.0"
     inkscape:pagecheckerboard="0"
     inkscape:deskcolor="#d1d1d1"
     inkscape:document-units="mm"
     inkscape:zoom="0.41327917"
     inkscape:cx="70.170486"
     inkscape:cy="260.11473"
     inkscape:window-width="2560"
     inkscape:window-height="984"
     inkscape:window-x="0"
     inkscape:window-y="0"
     inkscape:window-maximized="1"
     inkscape:current-layer="layer3" /><defs
     id="defs1" /><g
     inkscape:label="Layer 1"
     inkscape:groupmode="layer"
     id="layer1"><g
       inkscape:groupmode="layer"
       id="g3"
       inkscape:label="Layer 2"><path
         d="m 65.74224,16.682186 c -2.984061,0.182359 -5.194515,1.19941 -5.194515,1.19941 0,0 -50.5885875,18.446914 -53.8706132,19.691821 -3.2820258,1.244904 -3.0556274,5.432227 -3.0556274,5.432227 v 29.538248 c 0,0 -3.9e-6,22.182027 0.2263427,26.935307 0.2263465,4.753281 3.2819703,5.319051 3.2819703,5.319051 0,0 51.8334646,19.01329 55.6813556,20.37137 3.847894,1.35808 6.111255,0 6.111255,0 0,0 53.417882,-19.01329 56.699902,-20.48454 3.28203,-1.47125 3.05562,-4.52685 3.05562,-4.52685 0,0 0.11317,-51.946624 0,-56.473558 -0.11317,-4.526931 -2.15025,-5.545398 -2.15025,-5.545398 0,0 -49.45684,-18.107382 -54.889159,-20.484021 -2.037119,-0.89124 -4.105844,-1.082483 -5.896281,-0.973067 z"
         style="display:inline;fill:#0b2817;stroke:none;stroke-width:0.264583"
         id="path2" /><path
         d="m 55.821414,30.171597 c 0,0 -37.368306,13.366337 -40.093678,14.360028 -2.725372,0.993688 -2.537372,4.336029 -2.537372,4.336029 V 72.44523 c 0,0 -3e-6,17.705802 0.187953,21.499894 0.187957,3.794092 2.725327,4.245692 2.725327,4.245692 0,0 36.665453,12.919074 39.843118,14.053644 5.571904,1.98942 4.678638,-3.67813 4.678638,-3.67813 0,-20.748412 -0.008,-33.425585 -0.008,-76.708042 0,-3.140047 -0.935238,-2.94227 -4.795961,-1.686691 z"
         style="display:inline;fill:#217844;stroke:none;stroke-width:0.215408"
         id="path3"
         sodipodi:nodetypes="csccscscsc" /><path
         d="m 76.253909,30.171597 c 0,0 37.368311,13.366337 40.093691,14.360028 2.72537,0.993688 2.53737,4.336029 2.53737,4.336029 V 72.44523 c 0,0 0,17.705802 -0.18796,21.499894 -0.18795,3.794092 -2.72532,4.245692 -2.72532,4.245692 0,0 -36.665464,12.919074 -39.843129,14.053644 -5.571904,1.98942 -4.678638,-3.67813 -4.678638,-3.67813 0,-20.748412 0.008,-33.425585 0.008,-76.708042 0,-3.140047 0.935238,-2.94227 4.795961,-1.686691 z"
         style="display:inline;fill:#16502d;stroke:none;stroke-width:0.215408"
         id="path14"
         sodipodi:nodetypes="csccscscsc" /></g><g
       inkscape:groupmode="layer"
       id="layer3"
       inkscape:label="Layer 3"><path
         style="fill:#0b2817;stroke:none;stroke-width:0.264583;stroke-opacity:1"
         d="M 21.766965,91.309218 V 50.976312 c 0,0 -0.122571,-0.77688 0.789888,-1.116401 0.91246,-0.339519 6.783324,-2.482739 6.783324,-2.482739 0,0 0.770993,-0.176831 0.770993,0.374888 0,0.55172 0,46.365686 0,46.365686 0,0 0.183907,1.195393 -0.816969,0.81697 -1.000877,-0.378423 -7.098087,-2.500424 -7.098087,-2.500424 0,0 -0.429149,0.08405 -0.429149,-1.125074 z"
         id="path15" /><path
         style="fill:#0b2817;stroke:none;stroke-width:0.307234;stroke-opacity:1"
         d="M 44.542466,98.461549 V 43.798071 c 0,0 -0.121945,-1.052911 0.785854,-1.513066 0.9078,-0.460153 6.748681,-2.464586 6.748681,-2.464586 0,0 0.767055,-0.23966 0.767055,0.508088 l 0,60.999163 c 0,0 0.182968,1.62012 -0.812796,1.10724 -0.995766,-0.51288 -7.061837,-2.44854 -7.061837,-2.44854 0,0 -0.426957,0.11391 -0.426957,-1.524821 z"
         id="path16"
         sodipodi:nodetypes="scscscscs" /><path
         style="fill:#0b2817;stroke:none;stroke-width:0.264583;stroke-opacity:1"
         d="M 111.08291,91.309218 V 50.976312 c 0,0 0.12257,-0.77688 -0.78989,-1.116401 -0.91246,-0.339519 -6.78333,-2.482739 -6.78333,-2.482739 0,0 -0.77099,-0.176831 -0.77099,0.374888 0,0.55172 0,46.365686 0,46.365686 0,0 -0.18391,1.195393 0.81697,0.81697 1.00087,-0.378423 7.09809,-2.500424 7.09809,-2.500424 0,0 0.42915,0.08405 0.42915,-1.125074 z"
         id="path17" /><path
         style="fill:#0b2817;stroke:none;stroke-width:0.307234;stroke-opacity:1"
         d="M 88.307403,98.461549 V 43.798071 c 0,0 0.121945,-1.052911 -0.785854,-1.513066 -0.9078,-0.460153 -6.748681,-2.464586 -6.748681,-2.464586 0,0 -0.767055,-0.23966 -0.767055,0.508088 v 60.999163 c 0,0 -0.182968,1.62012 0.812796,1.10724 0.995766,-0.51288 7.061837,-2.44854 7.061837,-2.44854 0,0 0.426957,0.11391 0.426957,-1.524821 z"
         id="path18"
         sodipodi:nodetypes="scscscscs" /></g></g></svg>
