<svg width="48" height="48" viewBox="0 0 48 48" fill="none" xmlns="http://www.w3.org/2000/svg">
  <path d="M4 35L24 42V7L4 14V35Z" fill="url(#paint0_linear_1_2)"/>
  <path d="M44 35L24 42V7L44 14V35Z" fill="url(#paint1_linear_1_2)"/>
  <path d="M16.5 19.3868L11.5 16.5V31.5L16.5 34.3868V19.3868Z" fill="url(#paint2_linear_1_2)"/>
  <path d="M30 20.3509L19 14H18.5V34H19L29.5 40.0622L30 39.9282V20.3509Z" fill="url(#paint3_linear_1_2)"/>
  <path d="M37 17.6799L32 14.7932V33.1621L38.9282 37.1621V18.7932L37 17.6799Z" fill="url(#paint4_linear_1_2)"/>
  <path d="M44 20L39 17.1132V30.9699L44 33.8567V20Z" fill="url(#paint5_linear_1_2)"/>
  <path d="M9.00176 30.4736V17.5784C9.00176 17.5784 8.96257 17.33 9.2543 17.2215C9.54603 17.1129 11.4231 16.4277 11.4231 16.4277C11.4231 16.4277 11.6696 16.3712 11.6696 16.5476C11.6696 16.724 11.6696 31.3715 11.6696 31.3715C11.6696 31.3715 11.7284 31.7537 11.4084 31.6327C11.0884 31.5118 9.13896 30.8333 9.13896 30.8333C9.13896 30.8333 9.00176 30.8602 9.00176 30.4736Z" fill="url(#paint6_linear_1_2)"/>
  <path d="M16.2835 32.7603V15.2834C16.2835 15.2834 16.2445 14.9468 16.5348 14.7997C16.825 14.6525 18.6924 14.0117 18.6924 14.0117C18.6924 14.0117 18.9377 13.9351 18.9377 14.1741V33.6767C18.9377 33.6767 18.9962 34.1947 18.6778 34.0307C18.3594 33.8667 16.42 33.2478 16.42 33.2478C16.42 33.2478 16.2835 33.2843 16.2835 32.7603Z" fill="url(#paint7_linear_1_2)"/>
  <path d="M39.5577 30.4736V17.5784C39.5577 17.5784 39.5969 17.33 39.3052 17.2215C39.0134 17.1129 37.1364 16.4277 37.1364 16.4277C37.1364 16.4277 36.8899 16.3712 36.8899 16.5476C36.8899 16.724 36.8899 31.3715 36.8899 31.3715C36.8899 31.3715 36.8311 31.7537 37.1511 31.6327C37.4711 31.5118 39.4205 30.8333 39.4205 30.8333C39.4205 30.8333 39.5577 30.8602 39.5577 30.4736Z" fill="url(#paint8_linear_1_2)"/>
  <path d="M32.276 32.7603V15.2834C32.276 15.2834 32.3149 14.9468 32.0247 14.7997C31.7345 14.6525 29.867 14.0117 29.867 14.0117C29.867 14.0117 29.6218 13.9351 29.6218 14.1741V33.6767C29.6218 33.6767 29.5633 34.1947 29.8817 34.0307C30.2 33.8667 32.1395 33.2478 32.1395 33.2478C32.1395 33.2478 32.276 33.2843 32.276 32.7603Z" fill="url(#paint9_linear_1_2)"/>
  <path d="M44 35L24 42L4 35V34L24 41L44 34V35Z" fill="black" fill-opacity="0.1"/>
  <defs>
  <linearGradient id="paint0_linear_1_2" x1="14" y1="7" x2="14" y2="42" gradientUnits="userSpaceOnUse">
  <stop stop-color="#428C60"/>
  <stop offset="1" stop-color="#217844"/>
  </linearGradient>
  <linearGradient id="paint1_linear_1_2" x1="34" y1="7" x2="34" y2="42" gradientUnits="userSpaceOnUse">
  <stop stop-color="#396A4C"/>
  <stop offset="1" stop-color="#16502D"/>
  </linearGradient>
  <linearGradient id="paint2_linear_1_2" x1="11.5" y1="24" x2="17.5622" y2="27.5" gradientUnits="userSpaceOnUse">
  <stop stop-opacity="0.2"/>
  <stop offset="1" stop-opacity="0"/>
  </linearGradient>
  <linearGradient id="paint3_linear_1_2" x1="19" y1="24" x2="25.08" y2="29.2314" gradientUnits="userSpaceOnUse">
  <stop stop-opacity="0.2"/>
  <stop offset="1" stop-opacity="0"/>
  </linearGradient>
  <linearGradient id="paint4_linear_1_2" x1="32" y1="25" x2="37.4087" y2="26.3625" gradientUnits="userSpaceOnUse">
  <stop stop-opacity="0.2"/>
  <stop offset="0.833137" stop-opacity="0"/>
  </linearGradient>
  <linearGradient id="paint5_linear_1_2" x1="39" y1="24.6758" x2="43.9364" y2="26.2052" gradientUnits="userSpaceOnUse">
  <stop stop-opacity="0.2"/>
  <stop offset="0.75" stop-opacity="0"/>
  </linearGradient>
  <linearGradient id="paint6_linear_1_2" x1="10.3124" y1="11.1027" x2="10.3124" y2="37.6846" gradientUnits="userSpaceOnUse">
  <stop stop-color="#233E2E"/>
  <stop offset="1" stop-color="#0B2817"/>
  </linearGradient>
  <linearGradient id="paint7_linear_1_2" x1="17.5875" y1="7" x2="17.5875" y2="42" gradientUnits="userSpaceOnUse">
  <stop stop-color="#233E2E"/>
  <stop offset="1" stop-color="#0B2817"/>
  </linearGradient>
  <linearGradient id="paint8_linear_1_2" x1="38.1981" y1="11.1027" x2="38.1981" y2="37.6846" gradientUnits="userSpaceOnUse">
  <stop stop-color="#233E2E"/>
  <stop offset="1" stop-color="#0B2817"/>
  </linearGradient>
  <linearGradient id="paint9_linear_1_2" x1="30.9233" y1="7" x2="30.9233" y2="42" gradientUnits="userSpaceOnUse">
  <stop stop-color="#233E2E"/>
  <stop offset="1" stop-color="#0B2817"/>
  </linearGradient>
  </defs>
  </svg>
  